name Walk4.mot
datacolumns 19
datarows 25
range 3.81500000 3.93500000
endheader

                time	   L_ground_force_vx	   L_ground_force_vy	   L_ground_force_vz	   L_ground_force_px	   L_ground_force_py	   L_ground_force_pz	   R_ground_force_vx	   R_ground_force_vy	   R_ground_force_vz	   R_ground_force_px	   R_ground_force_py	   R_ground_force_pz	   L_ground_torque_x	   L_ground_torque_y	   L_ground_torque_z	   R_ground_torque_x	   R_ground_torque_y	   R_ground_torque_z	
          3.81500000	         28.15080750	       1002.47051147	         69.42940980	         -0.21566098	          0.00000000	         -0.04099377	         -0.04097320	          0.55265764	          0.02772341	          0.00026829	          0.00000000	          0.00022384	          0.00000000	          0.60790981	          0.00000000	          0.00000000	          0.01036329	          0.00000000	
          3.82000000	         30.30598956	       1003.09563940	         70.79560572	         -0.21378614	          0.00000000	         -0.04133154	         -0.05683663	          0.61192830	          0.02431728	          0.00026125	          0.00000000	          0.00021259	          0.00000000	          0.72812711	          0.00000000	          0.00000000	          0.01389530	          0.00000000	
          3.82500000	         32.56610314	       1003.38872454	         72.02689084	         -0.21194079	          0.00000000	         -0.04160729	         -0.07456419	          0.62888582	          0.01600682	          0.00021805	          0.00000000	          0.00016882	          0.00000000	          0.84126163	          0.00000000	          0.00000000	          0.01768935	          0.00000000	
          3.83000000	         34.95033547	       1003.52868848	         73.08174631	         -0.21014543	          0.00000000	         -0.04181576	         -0.09301234	          0.57776975	          0.00107357	          0.00012380	          0.00000000	          0.00007974	          0.00000000	          0.94235541	          0.00000000	          0.00000000	          0.02142413	          0.00000000	
          3.83500000	         37.47897867	       1003.68094878	         73.93158158	         -0.20842070	          0.00000000	         -0.04195583	         -0.11030897	          0.42680516	         -0.02234545	         -0.00003844	          0.00000000	         -0.00006900	          0.00000000	          1.02739778	          0.00000000	          0.00000000	          0.02460588	          0.00000000	
          3.84000000	         40.17033600	       1003.98009047	         74.56298622	         -0.20678599	          0.00000000	         -0.04202948	         -0.12367679	          0.13875697	         -0.05610876	         -0.00028669	          0.00000000	         -0.00029242	          0.00000000	          1.09360739	          0.00000000	          0.00000000	          0.02653283	          0.00000000	
          3.84500000	         43.03861964	       1004.51779092	         74.97686600	         -0.20525759	          0.00000000	         -0.04204205	         -0.12926948	         -0.32753215	         -0.10183879	         -0.00063845	          0.00000000	         -0.00060477	          0.00000000	          1.13934326	          0.00000000	          0.00000000	          0.02626543	          0.00000000	
          3.85000000	         46.09208999	       1005.33655411	         75.18578332	         -0.20384682	          0.00000000	         -0.04200254	         -0.12204805	         -1.01426004	         -0.16058970	         -0.00110825	          0.00000000	         -0.00101725	          0.00000000	          1.16459872	          0.00000000	          0.00000000	          0.02260920	          0.00000000	
          3.85500000	         49.33325344	       1006.43197265	         75.21088406	         -0.20255944	          0.00000000	         -0.04192136	         -0.09573514	         -1.96004284	         -0.23239946	         -0.00170416	          0.00000000	         -0.00153501	          0.00000000	          1.17049166	          0.00000000	          0.00000000	          0.01411939	          0.00000000	
          3.86000000	         52.75799073	       1007.76265062	         75.08187002	         -0.20139599	          0.00000000	         -0.04180803	         -0.04289650	         -3.19314901	         -0.31571675	         -0.00242323	          0.00000000	         -0.00215308	          0.00000000	          1.15909781	          0.00000000	          0.00000000	         -0.00086076	          0.00000000	
          3.86500000	         56.35691675	       1009.26133687	         74.83911616	         -0.20035304	          0.00000000	         -0.04167045	          0.04478935	         -4.72222483	         -0.40670331	         -0.00324570	          0.00000000	         -0.00285136	          0.00000000	          1.13322662	          0.00000000	          0.00000000	         -0.02411435	          0.00000000	
          3.87000000	         60.11834498	       1010.84424919	         74.53256821	         -0.19942419	          0.00000000	         -0.04151610	          0.17600111	         -6.52425171	         -0.49842797	         -0.00412795	          0.00000000	         -0.00358858	          0.00000000	          1.09633874	          0.00000000	          0.00000000	         -0.05740154	          0.00000000	
          3.87500000	         64.02999015	       1012.41631937	         74.21643216	         -0.19860108	          0.00000000	         -0.04135188	          0.35890417	         -8.52967243	         -0.57999137	         -0.00499462	          0.00000000	         -0.00429562	          0.00000000	          1.05258305	          0.00000000	          0.00000000	         -0.10222970	          0.00000000	
          3.88000000	         68.07833089	       1013.87604893	         73.94415877	         -0.19787472	          0.00000000	         -0.04118439	          0.59985654	        -10.60493669	         -0.63565047	         -0.00573010	          0.00000000	         -0.00486838	          0.00000000	          1.00663401	          0.00000000	          0.00000000	         -0.15952602	          0.00000000	
          3.88500000	         72.24852311	       1015.11770357	         73.76359504	         -0.19723542	          0.00000000	         -0.04102012	          0.90161362	        -12.53317517	         -0.64405058	         -0.00617033	          0.00000000	         -0.00516114	          0.00000000	          0.96333867	          0.00000000	          0.00000000	         -0.22919871	          0.00000000	
          3.89000000	         76.52452477	       1016.03103608	         73.71260172	         -0.19667306	          0.00000000	         -0.04086446	          1.26097321	        -13.99433872	         -0.57772002	         -0.00609583	          0.00000000	         -0.00498114	          0.00000000	          0.92737274	          0.00000000	          0.00000000	         -0.30957826	          0.00000000	
          3.89500000	         80.88960035	       1016.50264431	         73.81554216	         -0.19617750	          0.00000000	         -0.04072163	          1.66583785	        -14.54695257	         -0.40303639	         -0.00522787	          0.00000000	         -0.00408615	          0.00000000	          0.90272257	          0.00000000	          0.00000000	         -0.39674079	          0.00000000	
          3.90000000	         85.32682452	       1016.41748320	         74.08087263	         -0.19573887	          0.00000000	         -0.04059528	          2.09173098	        -13.61463967	         -0.08093258	         -0.00322964	          0.00000000	         -0.00218657	          0.00000000	          0.89246134	          0.00000000	          0.00000000	         -0.48373100	          0.00000000	
          3.90500000	         89.81978936	       1015.66046277	         74.50010724	         -0.19534735	          0.00000000	         -0.04048761	          2.49789092	        -10.48174247	          0.43133082	          0.00028465	          0.00000000	          0.00104526	          0.00000000	          0.89867576	          0.00000000	          0.00000000	         -0.55972415	          0.00000000	
          3.91000000	         94.35095808	       1014.11752498	         75.04923260	         -0.19499318	          0.00000000	         -0.04039875	          2.82318840	         -4.30367297	          1.17694878	          0.00572966	          0.00000000	          0.00595599	          0.00000000	          0.92239700	          0.00000000	          0.00000000	         -0.60919662	          0.00000000	
          3.91500000	         98.89949928	       1011.67718077	         75.68802572	         -0.19466648	          0.00000000	         -0.04032792	          2.98227228	          5.86104698	          2.19449946	          0.01351387	          0.00000000	          0.01287916	          0.00000000	          0.96359241	          0.00000000	          0.00000000	         -0.61121193	          0.00000000	
          3.92000000	        103.43938724	       1008.23266751	         76.36201294	         -0.19435748	          0.00000000	         -0.04027332	          2.86254654	         20.98887336	          3.51060394	          0.02398578	          0.00000000	          0.02208663	          0.00000000	          1.02107099	          0.00000000	          0.00000000	         -0.53897498	          0.00000000	
          3.92500000	        107.93862839	       1003.68083262	         77.00679260	         -0.19405711	          0.00000000	         -0.04023039	          2.32281628	         41.99038142	          5.12995452	          0.03735733	          0.00000000	          0.03372068	          0.00000000	          1.09260894	          0.00000000	          0.00000000	         -0.35985940	          0.00000000	
          3.93000000	        112.35883041	        997.92167667	         77.55193244	         -0.19375654	          0.00000000	         -0.04019160	          1.19470340	         69.56111384	          7.02246951	          0.05360146	          0.00000000	          0.04770388	          0.00000000	          1.17522509	          0.00000000	          0.00000000	         -0.03616942	          0.00000000	
          3.93500000	        116.65510216	        990.85852256	         77.92351799	         -0.19344713	          0.00000000	         -0.04014731	         -0.71179342	        103.97551595	          9.10755131	          0.07232165	          0.00000000	          0.06362576	          0.00000000	          1.26563492	          0.00000000	          0.00000000	          0.47304687	          0.00000000	
